<svg xmlns="http://www.w3.org/2000/svg" viewBox="0 0 151.03 45.61"><defs><style>.cls-1{fill:#ea5504;}.cls-2{fill:#595757;}</style></defs><title>资源 2</title><g id="图层_2" data-name="图层 2"><g id="图层_1-2" data-name="图层 1"><path class="cls-1" d="M24.54,19.84a.82.82,0,0,1-.82-.71,3.12,3.12,0,0,1,1.78-3.3,3.33,3.33,0,0,1,3.88,1A.83.83,0,0,1,29.25,18a.85.85,0,0,1-1.17-.13,1.68,1.68,0,0,0-1.92-.53,1.48,1.48,0,0,0-.8,1.54.83.83,0,0,1-.71.93Z"/><path class="cls-1" d="M14.85,23.37a.84.84,0,0,1-.82-.71,3.13,3.13,0,0,1,1.79-3.31,3.37,3.37,0,0,1,3.88,1,.85.85,0,0,1-.13,1.17.83.83,0,0,1-1.17-.13,1.68,1.68,0,0,0-1.92-.53,1.5,1.5,0,0,0-.8,1.55.83.83,0,0,1-.71.93Z"/><path class="cls-1" d="M24.19,38.42a15.79,15.79,0,1,1,14.35-17.1A15.8,15.8,0,0,1,24.19,38.42ZM21.58,8.63a14.12,14.12,0,1,0,15.3,12.84A14.15,14.15,0,0,0,21.58,8.63Z"/><path class="cls-1" d="M35.66,28.86l.58-1.77a14.2,14.2,0,0,0-.89-10.9l-.85-1.63,1.79.44a16.94,16.94,0,0,1,9,5.33l.36.44-.28.5a16.89,16.89,0,0,1-8,6.84Zm1.92-11.74a15.83,15.83,0,0,1,1,4.2,15.63,15.63,0,0,1-.25,4.48A14.83,14.83,0,0,0,43.65,21,14.68,14.68,0,0,0,37.58,17.12Z"/><path class="cls-1" d="M37.42,38.11h0a18.07,18.07,0,0,1-8.14-1.31l-1.72-.67,1.64-.84a14.18,14.18,0,0,0,7.1-8.43l.55-1.75,1,1.57A16.88,16.88,0,0,1,40.49,37l-.06.57-.55.15A13,13,0,0,1,37.42,38.11Zm-5.86-2.28a14.86,14.86,0,0,0,7.32.38,14.88,14.88,0,0,0-1.64-7.12A15.84,15.84,0,0,1,31.56,35.83Z"/><path class="cls-1" d="M24.86,45.61l-.49-.28a16.83,16.83,0,0,1-6.85-8l-.74-1.68,1.75.56a14.06,14.06,0,0,0,5.51.6,13.83,13.83,0,0,0,5.42-1.6l1.63-.87-.43,1.8a17,17,0,0,1-5.36,9.16Zm-5-7.41a14.83,14.83,0,0,0,4.86,5.38,14.75,14.75,0,0,0,3.87-6.17A16,16,0,0,1,19.82,38.2Z"/><path class="cls-1" d="M11.22,40.42h0a13.14,13.14,0,0,1-2.51,0l-.56,0L8,39.81A16.91,16.91,0,0,1,8.8,29.36l.66-1.71.85,1.62a14.23,14.23,0,0,0,8.48,7l1.78.53-1.59,1A18,18,0,0,1,11.22,40.42ZM9.46,38.8a15,15,0,0,0,7.09-1.62A15.91,15.91,0,0,1,9.8,31.62,14.76,14.76,0,0,0,9.46,38.8Z"/><path class="cls-1" d="M11.23,31l-1.81-.44A16.87,16.87,0,0,1,.36,25.21L0,24.77l.28-.5A16.88,16.88,0,0,1,8.2,17.48l1.68-.75-.54,1.76a14,14,0,0,0,1,10.85ZM2,24.59A14.68,14.68,0,0,0,8.1,28.42a15.67,15.67,0,0,1-1-4.35,15.34,15.34,0,0,1,.21-4.28A14.74,14.74,0,0,0,2,24.59Z"/><path class="cls-1" d="M8.77,20.29l-.95-1.6A16.85,16.85,0,0,1,5.25,8.61L5.3,8l.55-.15a16.85,16.85,0,0,1,10.35.77l1.74.65-1.65.86a14.22,14.22,0,0,0-7,8.34ZM6.86,9.35A14.82,14.82,0,0,0,8.4,16.27a15.92,15.92,0,0,1,5.52-6.61A14.73,14.73,0,0,0,6.86,9.35Z"/><path class="cls-1" d="M28.89,9.81l-1.78-.57a14.2,14.2,0,0,0-10.77.91L14.69,11l.46-1.8A16.82,16.82,0,0,1,20.43.36L20.87,0l.5.28a16.84,16.84,0,0,1,6.75,7.83ZM21.44,7a16.2,16.2,0,0,1,4.35.22A14.75,14.75,0,0,0,21.05,2a14.7,14.7,0,0,0-3.76,5.88A15.83,15.83,0,0,1,21.44,7Z"/><path class="cls-1" d="M36.26,18l-.84-1.67a14.27,14.27,0,0,0-8.25-7.07l-1.75-.57L27,7.75A16.89,16.89,0,0,1,37,5.23l.57.06.15.55a16.84,16.84,0,0,1-.79,10.41ZM29.41,8.36A16,16,0,0,1,36,14a14.82,14.82,0,0,0,.32-7.11A14.63,14.63,0,0,0,29.41,8.36Z"/><path class="cls-1" d="M23.07,31a8.33,8.33,0,0,1-5.48-2.13.83.83,0,0,1,1.15-1.19A6.59,6.59,0,0,0,25.19,29c3.72-1.26,3.75-5.3,3.75-5.47a.83.83,0,0,1,.83-.83h0a.83.83,0,0,1,.83.82,7.49,7.49,0,0,1-4.89,7.05A8.19,8.19,0,0,1,23.07,31Z"/><path class="cls-2" d="M56.32,7.83v6.5h6.29V7.83h3.82V24.74H62.61V17.67H56.32v7.07H52.48V7.83Z"/><path class="cls-2" d="M75.08,7.83v9.74c0,2.91,1.11,4.39,3.06,4.39s3.11-1.41,3.11-4.39V7.83h3.82v9.49c0,5.21-2.64,7.7-7,7.7s-6.77-2.36-6.77-7.75V7.83Z"/><path class="cls-2" d="M93.07,20.4l-1.2,4.34h-4L93.07,7.83h5l5.24,16.91H99.22l-1.3-4.34Zm4.29-2.86-1-3.59c-.3-1-.6-2.25-.85-3.26h0c-.25,1-.51,2.29-.78,3.26l-1,3.59Z"/><path class="cls-2" d="M107.1,24.74V7.83h4.47l3.51,6.2a51.17,51.17,0,0,1,2.76,5.79h.07a62.85,62.85,0,0,1-.32-7V7.83h3.51V24.74h-4l-3.61-6.52a62.38,62.38,0,0,1-2.93-6l-.08,0c.1,2.24.15,4.62.15,7.38v5.09Z"/><path class="cls-2" d="M125.92,7.83h3.84v13.7h6.72v3.21H125.92Z"/><path class="cls-2" d="M150.3,17.59h-6.22v4H151v3.13H140.24V7.83h10.44V11h-6.6v3.51h6.22Z"/><path class="cls-2" d="M56.2,34.49H53.35v1.85h3.19v1.44h-5V30h4.8v1.44h-3v1.62H56.2Z"/><path class="cls-2" d="M58.42,37.78V30h2l1.61,2.85a20.26,20.26,0,0,1,1.27,2.66h0a27.75,27.75,0,0,1-.15-3.24V30h1.61v7.77H63l-1.66-3A29.05,29.05,0,0,1,60,32h0c0,1,.07,2.12.07,3.39v2.34Z"/><path class="cls-2" d="M68.55,31.49H66.47V30h6v1.48H70.32v6.29H68.55Z"/><path class="cls-2" d="M78.67,34.49H75.82v1.85H79v1.44h-5V30h4.79v1.44h-3v1.62h2.85Z"/><path class="cls-2" d="M80.89,30.12A14.59,14.59,0,0,1,83.23,30a3.94,3.94,0,0,1,2.51.61,1.93,1.93,0,0,1,.72,1.62,2.05,2.05,0,0,1-1.37,1.91v0a1.93,1.93,0,0,1,1,1.45c.25.87.49,1.89.64,2.19H85A9.42,9.42,0,0,1,84.42,36c-.21-1-.54-1.23-1.26-1.24h-.53v3.05H80.89Zm1.74,3.34h.7c.87,0,1.39-.44,1.39-1.12s-.48-1.07-1.29-1.08a3.79,3.79,0,0,0-.8.06Z"/><path class="cls-2" d="M89.91,31.49H87.82V30h6v1.48H91.67v6.29H89.91Z"/><path class="cls-2" d="M96.39,35.78l-.55,2H94L96.39,30H98.7l2.4,7.77H99.21l-.59-2Zm2-1.31-.48-1.65c-.14-.46-.28-1-.39-1.49h0c-.11.46-.23,1.05-.35,1.49l-.47,1.65Z"/><path class="cls-2" d="M104.59,30v7.77h-1.76V30Z"/><path class="cls-2" d="M106.8,37.78V30h2l1.61,2.85a23.17,23.17,0,0,1,1.27,2.66h0a30.13,30.13,0,0,1-.15-3.24V30h1.62v7.77h-1.85l-1.66-3A29,29,0,0,1,108.38,32h0c0,1,.07,2.12.07,3.39v2.34Z"/><path class="cls-2" d="M122,34.81c0-.94-.07-2.07-.07-3.2h0c-.25,1-.57,2.1-.87,3l-.94,3h-1.37l-.83-3c-.26-.91-.52-2-.71-3h0c0,1-.08,2.25-.14,3.22l-.14,3h-1.62l.49-7.77h2.34l.76,2.6c.25.89.49,1.86.66,2.77h0c.22-.9.49-1.92.74-2.79l.83-2.58h2.29l.43,7.77h-1.72Z"/><path class="cls-2" d="M130.48,34.49h-2.85v1.85h3.19v1.44h-5V30h4.8v1.44h-3v1.62h2.85Z"/><path class="cls-2" d="M132.7,37.78V30h2.05l1.62,2.85a21.55,21.55,0,0,1,1.26,2.66h0a27.75,27.75,0,0,1-.15-3.24V30h1.61v7.77h-1.84l-1.66-3A29.05,29.05,0,0,1,134.28,32h0c0,1,.06,2.12.06,3.39v2.34Z"/><path class="cls-2" d="M142.83,31.49h-2.08V30h6v1.48H144.6v6.29h-1.77Z"/></g></g></svg>