<svg xmlns="http://www.w3.org/2000/svg" viewBox="0 0 148.05 41.68"><defs><style>.cls-1{fill:#ea5504;}.cls-2{fill:#595757;}</style></defs><title>资源 2</title><g id="图层_2" data-name="图层 2"><g id="图层_1-2" data-name="图层 1"><path class="cls-1" d="M10.26,28.31l-1.65-.4A15.43,15.43,0,0,1,.33,23L0,22.63l.26-.45A15.43,15.43,0,0,1,7.5,16L9,15.29l-.5,1.6a12.9,12.9,0,0,0-.54,5,12.74,12.74,0,0,0,1.47,4.94ZM1.85,22.47A13.66,13.66,0,0,0,7.4,26a14.52,14.52,0,0,1-.92-4,14.2,14.2,0,0,1,.19-3.91A13.52,13.52,0,0,0,1.85,22.47Z"/><path class="cls-1" d="M26.4,9l-1.62-.52a13,13,0,0,0-9.85.82l-1.51.78.43-1.64A15.34,15.34,0,0,1,18.67.33l.4-.33.46.26A15.38,15.38,0,0,1,25.7,7.41Zm-6.81-2.6a14.71,14.71,0,0,1,4,.2,13.6,13.6,0,0,0-4.33-4.72A13.32,13.32,0,0,0,15.8,7.23,14.3,14.3,0,0,1,19.59,6.37Z"/><path class="cls-1" d="M22.1,35.11A14.42,14.42,0,1,1,35.22,19.48,14.44,14.44,0,0,1,22.1,35.11ZM19.72,7.89a12.9,12.9,0,1,0,14,11.73A12.92,12.92,0,0,0,19.72,7.89Z"/><path class="cls-1" d="M32.58,26.37l.53-1.61a12.92,12.92,0,0,0-.81-10l-.77-1.49,1.63.4a15.4,15.4,0,0,1,8.25,4.87l.33.4-.25.45a15.46,15.46,0,0,1-7.35,6.26Zm1.76-10.73A14.32,14.32,0,0,1,35,23.57a13.49,13.49,0,0,0,4.9-4.43A13.52,13.52,0,0,0,34.34,15.64Z"/><path class="cls-1" d="M34.2,34.83h0a16.67,16.67,0,0,1-7.45-1.2L25.18,33l1.51-.76a13,13,0,0,0,6.49-7.7l.49-1.61.88,1.44A15.47,15.47,0,0,1,37,33.76l0,.52-.5.14A12.76,12.76,0,0,1,34.2,34.83Zm-5.36-2.09a13.63,13.63,0,0,0,6.69.35A13.61,13.61,0,0,0,34,26.58,14.53,14.53,0,0,1,28.84,32.74Z"/><path class="cls-1" d="M22.72,41.68l-.45-.26A15.41,15.41,0,0,1,16,34.07l-.67-1.54,1.6.51a12.76,12.76,0,0,0,5,.56,12.91,12.91,0,0,0,5-1.47l1.5-.8L28,33a15.46,15.46,0,0,1-4.9,8.37Zm-4.6-6.77a13.58,13.58,0,0,0,4.44,4.92,13.58,13.58,0,0,0,3.53-5.65A14.56,14.56,0,0,1,18.12,34.91Z"/><path class="cls-1" d="M10.25,36.94h0a12.49,12.49,0,0,1-2.29,0l-.51,0-.15-.5A15.49,15.49,0,0,1,8,26.83l.61-1.56.78,1.48a13,13,0,0,0,7.74,6.36l1.63.49-1.45.88A16.6,16.6,0,0,1,10.25,36.94ZM8.64,35.46A13.68,13.68,0,0,0,15.12,34,14.61,14.61,0,0,1,9,28.9,13.43,13.43,0,0,0,8.64,35.46Z"/><path class="cls-1" d="M8,18.54l-.88-1.46A15.35,15.35,0,0,1,4.8,7.87l0-.52.5-.14a15.4,15.4,0,0,1,9.46.7l1.58.6-1.5.78a13,13,0,0,0-6.37,7.63Zm-1.75-10a13.47,13.47,0,0,0,1.41,6.32,14.65,14.65,0,0,1,5-6A13.57,13.57,0,0,0,6.27,8.54Z"/><path class="cls-1" d="M33.14,16.45l-.77-1.53a13,13,0,0,0-7.54-6.46l-1.6-.52,1.44-.85a15.42,15.42,0,0,1,9.15-2.31l.52,0,.14.5a15.39,15.39,0,0,1-.73,9.52ZM26.87,7.64a14.45,14.45,0,0,1,6,5.11,13.55,13.55,0,0,0,.3-6.5A13.53,13.53,0,0,0,26.87,7.64Z"/><path class="cls-1" d="M22.42,18.13a.74.74,0,0,1-.74-.65,2.86,2.86,0,0,1,1.63-3,3.06,3.06,0,0,1,3.54.93.76.76,0,0,1-.12,1.07.75.75,0,0,1-1.07-.12,1.53,1.53,0,0,0-1.75-.48,1.35,1.35,0,0,0-.73,1.41.76.76,0,0,1-.65.85Z"/><path class="cls-1" d="M13.57,21.35a.76.76,0,0,1-.75-.65,2.87,2.87,0,0,1,1.63-3,3.07,3.07,0,0,1,3.55.93.76.76,0,0,1-.12,1.07.77.77,0,0,1-1.07-.12,1.53,1.53,0,0,0-1.75-.49,1.36,1.36,0,0,0-.73,1.42.75.75,0,0,1-.65.84Z"/><path class="cls-1" d="M21.08,28.36a7.67,7.67,0,0,1-5-1.94.76.76,0,0,1,1.06-1.09A6,6,0,0,0,23,26.52c3.39-1.16,3.43-4.84,3.43-5a.76.76,0,0,1,.76-.76h0a.75.75,0,0,1,.76.75A6.85,6.85,0,0,1,23.51,28,7.61,7.61,0,0,1,21.08,28.36Z"/><path class="cls-2" d="M138.76,11.14h5.8a3.49,3.49,0,1,0,0-7h-5.8a3.49,3.49,0,0,0,0,7ZM139.09,6h5.24a1.63,1.63,0,0,1,0,3.26h-5.24a1.63,1.63,0,1,1,0-3.26Z"/><path class="cls-2" d="M73.75,5.54H65c0-.36,0-.74,0-1.15H63c.23,5.15-2,5.92-2,5.92v2.32s2.66-.85,3.6-5h8a9.62,9.62,0,0,1-1.22,3.75h2a11.2,11.2,0,0,0,1.25-4.71A1.06,1.06,0,0,0,73.75,5.54Z"/><path class="cls-2" d="M78.23,5H78a1,1,0,0,0-1,.85h0v7.81a23.86,23.86,0,0,0,9.74,2.46v6.36H84.42V24.5H89V16.11a18.91,18.91,0,0,0,9.31-2.48v-2A37.34,37.34,0,0,1,89,13.78V8.57H86.69v5.19A49.89,49.89,0,0,1,79,12.18V7H98.34V5H78.23Z"/><path class="cls-2" d="M133.38,4.89h-2V7h-2.82V4.89h-2V7h-1.37V9.09h1.37v5.69a9,9,0,0,0,2,5.73,11,11,0,0,1-2.72,1.61V24.5a13.33,13.33,0,0,0,4.22-2.42,13.42,13.42,0,0,0,4.24,2.42V22.12a10.94,10.94,0,0,1-2.73-1.61,9.09,9.09,0,0,0,1.95-5.73V9.09h1V7h-1Zm-2,10A6.5,6.5,0,0,1,129.92,19a6.56,6.56,0,0,1-1.41-4.06V9.09h2.82Z"/><path class="cls-2" d="M69.76,15.91H68.12a9.62,9.62,0,0,0,.09-1.34v-4h-2v4.15c0,4.88-4.69,7.61-4.69,7.61v2.29s5-2.41,6.34-7.48c1.16,5.66,6.7,7.41,6.7,7.41V22.16S70.23,20.43,69.76,15.91Z"/><path class="cls-2" d="M121.05,11.17h0a1,1,0,0,0-1-1H104.83V7h17.61V5h-22.1V7h2.14V17.94h0s0,0,0,0a1,1,0,0,0,1,1h15.22v3.51H100.8v2h21.93v-2h-1.68ZM104.83,17V12.19h13.89V17Z"/><path class="cls-2" d="M76.45,22.18v2.37s4.9-1.28,5.38-7.35H79.75A8.18,8.18,0,0,1,76.45,22.18Z"/><path class="cls-2" d="M95,17.2H92.89c.48,6.07,5.39,7.35,5.39,7.35V22.18A8.18,8.18,0,0,1,95,17.2Z"/><path class="cls-2" d="M142.56,14.31H148v-2H135.31v2h5.16V15c0,.25,0,.49,0,.73a6.94,6.94,0,0,1-.11.83h-5.07v2.05h4.38a8.1,8.1,0,0,1-4.38,3.53V24.5s4.32-1.14,6.2-4.91c1.89,3.77,6.5,4.91,6.5,4.91V22.12s-3.33-.93-4.67-3.53H148V16.54h-5.33c0-.26-.08-.54-.11-.83s0-.48,0-.73Z"/><path class="cls-2" d="M59.38,4.86H52.25v2h6.09v7.88a8,8,0,0,1-1.82,5,7.74,7.74,0,0,1-1.89-5V8.43h-2v6.14a10.4,10.4,0,0,0,2.25,6.52,11.12,11.12,0,0,1-2.25,1.19v2.29a13.41,13.41,0,0,0,3.82-2,13.41,13.41,0,0,0,3.82,2V22.08A10.66,10.66,0,0,1,58.14,21a10.51,10.51,0,0,0,2.17-6.44V6.07h0a1.9,1.9,0,0,0,0-.25A1,1,0,0,0,59.38,4.86Z"/><path class="cls-2" d="M53,31.75l1.2,1.78a10.55,10.55,0,0,0,.46-2.4H52.45v-.6h2.79v.56a13,13,0,0,1-.66,3.07c.39.6.75,1.14,1.06,1.63l-.55.38c-.27-.46-.55-.9-.81-1.33a10,10,0,0,1-1.64,2.21l-.39-.58a7.82,7.82,0,0,0,1.63-2.26c-.47-.75-.94-1.46-1.39-2.13Zm4.84.05c0,.47,0,.9,0,1.29a5.42,5.42,0,0,0,2.42,3.68,5,5,0,0,0-.53.59,5.6,5.6,0,0,1-2.1-3A4.94,4.94,0,0,1,55,37.47a4.52,4.52,0,0,0-.43-.52,4.93,4.93,0,0,0,2.08-2,6.9,6.9,0,0,0,.52-3.17Zm-2.53,1a14.43,14.43,0,0,0,1.07-3.17l.63.15c-.09.37-.19.73-.3,1.07H60v.56a11.1,11.1,0,0,1-.79,1.51,5.06,5.06,0,0,0-.59-.26,7.42,7.42,0,0,0,.67-1.24h-2.8a14.62,14.62,0,0,1-.64,1.65A3.14,3.14,0,0,0,55.27,32.79Z"/><path class="cls-2" d="M68.93,34.23l.56.39A20.21,20.21,0,0,1,67.41,37l-.5-.44A20,20,0,0,0,68.93,34.23ZM68,30.3q3-.06,5.71-.37l.21.62c-1.89.18-3.66.28-5.33.31l-.3,2.29h2.32v-1.8h.66v1.8h3.13v.6H71.28v2.5a1.19,1.19,0,0,1-.23.84,1.07,1.07,0,0,1-.8.26h-1c0-.21-.07-.44-.13-.69.53.05.88.07,1,.07.34,0,.51-.16.51-.53V33.75H67.55Zm4.71,3.91a29.47,29.47,0,0,1,2.1,2.36l-.53.47c-.62-.8-1.3-1.62-2.07-2.44Z"/><path class="cls-2" d="M83.15,29.73h.63c0,1.1,0,2-.08,2.81.69.74,1.29,1.42,1.8,2L85,35c-.39-.5-.85-1.06-1.39-1.69a7.42,7.42,0,0,1-1.67,4,6.2,6.2,0,0,0-.46-.51,6.34,6.34,0,0,0,1.43-3.06A26.39,26.39,0,0,0,83.15,29.73Zm3.15,0h.62c0,.61,0,1.29,0,2.05q.52,3.63,2.58,4.91c-.19.21-.36.42-.51.62a6.34,6.34,0,0,1-2.28-3.86,6.38,6.38,0,0,1-2.48,4,5,5,0,0,0-.46-.51,5.92,5.92,0,0,0,2.4-3.9A24.78,24.78,0,0,0,86.3,29.73Z"/><path class="cls-2" d="M99.42,36.65l2.07,0,2.59-.07c0,.17-.13.38-.22.62h-2.57l-1.94,0a2.1,2.1,0,0,1-1.9-.92,12.71,12.71,0,0,0-1,1.06l-.33-.66,1-1V33.05h-1v-.59H97.8v3.39A1.83,1.83,0,0,0,99.42,36.65Zm-2.26-6.86c.27.33.65.83,1.12,1.5l-.57.4q-.64-1-1-1.56ZM99,32.45l.38-.41c.52.42,1.16.94,1.92,1.58a7.35,7.35,0,0,0,1.22-2.07l.6.29A9,9,0,0,1,101.75,34l1.89,1.6-.49.53-1.84-1.65a8.12,8.12,0,0,1-2.56,1.7c-.1-.15-.23-.33-.39-.53a7.85,7.85,0,0,0,2.48-1.6C100.06,33.38,99.44,32.84,99,32.45Zm-.45-1.56h5.37v.55H98.52Zm1.92-1,.55-.27c.17.25.36.58.58,1l-.57.29C100.8,30.47,100.61,30.14,100.44,29.86Z"/><path class="cls-2" d="M110.85,36.5h3.61v-1h-3.13V34.9h3.13v-1h-2.21v.28h-.62V30.07h6.31v4.07h-.62v-.28H115.1v1h3.14v.56H115.1v1h3.65v.57h-7.9Zm1.4-4.81h2.21V30.62h-2.21Zm0,1.62h2.21V32.24h-2.21Zm5.07-2.69H115.1v1.07h2.22Zm-2.22,2.69h2.22V32.24H115.1Z"/><path class="cls-2" d="M125.52,33.16h2.08V30.85h-1.73v-.63H133v.63h-1.62v2.31h2v.63h-2v3.62h-.66V33.79h-2.48a4.85,4.85,0,0,1-.41,2.16A4.25,4.25,0,0,1,126,37.51a5.83,5.83,0,0,0-.46-.55,3.94,3.94,0,0,0,1.63-1.3,3.74,3.74,0,0,0,.38-1.87h-2.07Zm2.73,0h2.47V30.85h-2.47Z"/><path class="cls-2" d="M143.36,36.12l-.47.53c-.29-.3-.58-.58-.87-.86a7.39,7.39,0,0,1-1.53,1.6l-.36-.51a6.26,6.26,0,0,0,1.46-1.5c-.38-.36-.76-.7-1.14-1,.19-.71.36-1.51.51-2.39h-.81v-.6h.92c.08-.53.16-1.1.24-1.69l.64.1c-.08.57-.17,1.1-.26,1.59h1.48V32a8.75,8.75,0,0,1-.8,3.27Zm-.8-4.16h-1c-.16.88-.33,1.6-.49,2.18l.82.68A7.79,7.79,0,0,0,142.56,32Zm4.09-1.25a26.55,26.55,0,0,1,1.4,2.49l-.63.29c-.11-.25-.23-.5-.35-.75q-1.24.07-3,.24a2.7,2.7,0,0,0-.56.13l-.29-.57a1.64,1.64,0,0,0,.47-.44A17.32,17.32,0,0,0,145,29.62l.66.22c-.48.92-1,1.76-1.43,2.51l2.58-.15c-.22-.42-.44-.83-.68-1.24Zm-3,3.17h3.83v3.58h-.6V36.9h-2.62v.57h-.61Zm3.23.56h-2.62v1.92h2.62Z"/></g></g></svg>